{"title":"Dilbagh Chahal - Gani De Manke - [2010] [PbTone]","uid":6049351,"size":36044926,"categoryP":"video","categoryS":"music_videos","magnet":"?xt=urn:btih:cace61f7dcedbd0502153e573fd533a7cf2832d8&amp;dn=Dilbagh+Chahal+-+Gani+De+Manke+-+%5B2010%5D+%5BPbTone%5D&amp;tr=udp%3A%2F%2Ftracker.openbittorrent.com%3A80&amp;tr=udp%3A%2F%2Fopen.demonii.com%3A1337&amp;tr=udp%3A%2F%2Ftracker.coppersurfer.tk%3A6969&amp;tr=udp%3A%2F%2Fexodus.desync.com%3A6969","seeders":0,"leechers":0,"uploader":"PBTONE","files":-1,"time":1292669438,"description":"      :::::::::  :::::::::   ::::::::::: ::::::::  ::::    ::: :::::::::: \n     :+:    :+: :+:    :+:      :+:    :+:    :+: :+:+:   :+: :+:         \n    +:+    +:+ +:+    +:+      +:+    +:+    +:+ :+:+:+  +:+ +:+          \n   +#++:++#+  +#++:++#+       +#+    +#+    +:+ +#+ +:+ +#+ +#++:++#      \n  +#+        +#+    +#+      +#+    +#+    +#+ +#+  +#+#+# +#+            \n #+#        #+#    #+#      #+#    #+#    #+# #+#   #+#+# #+#             \n###        #########       ###     ########  ###    #### ########## \n\n\n\n\nGeneral\nFormat                           : AVI\nFormat/Info                      : Audio Video Interleave\nFile size                        : 34.2 MiB\nDuration                         : 3mn 45s\nOverall bit rate                 : 1 271 Kbps\nWriting application              : MEncoder Sherpya-SVN-r32492-4.2.5\nWriting library                  : MPlayer\n\nVideo\nID                               : 0\nFormat                           : AVC\nFormat/Info                      : Advanced Video Codec\nFormat profile                   : &lt;a class=&quot;__cf_email__&quot; href=&quot;/cdn-cgi/l/email-protection&quot; data-cfemail=&quot;1c5e7d6f79707572795c502d322f&quot;&gt;[email&amp;#160;protected]&lt;/a&gt;&lt;script cf-hash='f9e31' type=&quot;text/javascript&quot;&gt;\n/* &lt;![CDATA[ */!function(){try{var t=&quot;currentScript&quot;in document?document.currentScript:function(){for(var t=document.getElementsByTagName(&quot;script&quot;),e=t.length;e--;)if(t[e].getAttribute(&quot;cf-hash&quot;))return t[e]}();if(t&amp;&amp;t.previousSibling){var e,r,n,i,c=t.previousSibling,a=c.getAttribute(&quot;data-cfemail&quot;);if(a){for(e=&quot;&quot;,r=parseInt(a.substr(0,2),16),n=2;a.length-n;n+=2)i=parseInt(a.substr(n,2),16)^r,e+=String.fromCharCode(i);e=document.createTextNode(e),c.parentNode.replaceChild(e,c)}}}catch(u){}}();/* ]]&gt; */&lt;/script&gt;\nFormat settings, CABAC           : No\nFormat settings, ReFrames        : 2 frames\nCodec ID                         : h264\nDuration                         : 3mn 45s\nBit rate                         : 1 086 Kbps\nNominal bit rate                 : 1 024 Kbps\nWidth                            : 640 pixels\nHeight                           : 480 pixels\nDisplay aspect ratio             : 4:3\nFrame rate                       : 25.000 fps\nColor space                      : YUV\nChroma subsampling               : 4:2:0\nBit depth                        : 8 bits\nScan type                        : Progressive\nBits/(Pixel*Frame)               : 0.141\nStream size                      : 29.2 MiB (85%)\nWriting library                  : x264 core 107 r1745 4785e8e\n\n\nAudio\nID                               : 1\nFormat                           : MPEG Audio\nFormat version                   : Version 1\nFormat profile                   : Layer 3\nMode                             : Joint stereo\nMode extension                   : MS Stereo\nCodec ID                         : 55\nCodec ID/Hint                    : MP3\nDuration                         : 3mn 43s\nBit rate mode                    : Constant\nBit rate                         : 32.0 Kbps\nChannel(s)                       : 2 channels\nSampling rate                    : 44.1 KHz\nCompression mode                 : Lossy\nStream size                      : 4.64 MiB (14%)\nAlignment                        : Aligned on interleaves\nInterleave, duration             : 26 ms (0.66 video frame)\nInterleave, preload duration     : 95 ms\nWriting library                  : LAME3.98.4\n\n\n\nScreenShoot \n &lt;a href=&quot;\nhttp://imagehacks.in/share-34B0_4D0C84EA.html&quot; rel=&quot;nofollow&quot; target=&quot;_NEW&quot;&gt;\nhttp://imagehacks.in/share-34B0_4D0C84EA.html&lt;/a&gt;\n &lt;a href=&quot;\nhttp://www.pbtone.net&quot; rel=&quot;nofollow&quot; target=&quot;_NEW&quot;&gt;\nhttp://www.pbtone.net&lt;/a&gt;\n","torrent":{"xt":"urn:btih:cace61f7dcedbd0502153e573fd533a7cf2832d8","amp;dn":"Dilbagh+Chahal+-+Gani+De+Manke+-+%5B2010%5D+%5BPbTone%5D","amp;tr":["udp%3A%2F%2Ftracker.openbittorrent.com%3A80","udp%3A%2F%2Fopen.demonii.com%3A1337","udp%3A%2F%2Ftracker.coppersurfer.tk%3A6969","udp%3A%2F%2Fexodus.desync.com%3A6969"],"infoHash":"cace61f7dcedbd0502153e573fd533a7cf2832d8","infoHashBuffer":{"type":"Buffer","data":[202,206,97,247,220,237,189,5,2,21,62,87,63,213,51,167,207,40,50,216]},"announce":[],"urlList":[]}}